<?xml version="1.0" encoding="UTF-8"?>
<svg id="Layer_2" data-name="Layer 2" xmlns="http://www.w3.org/2000/svg" viewBox="0 0 267.92 313.36">
  <defs>
    <style>
      .cls-1 {
        fill: #0000df;
      }
    </style>
  </defs>
  <g id="Layer_1-2" data-name="Layer 1">
    <path class="cls-1" d="M262.08,313.36c-85.72-.59-171.43-1.18-257.15-1.76C2.2,311.57,0,309.36,0,306.63v-170.05c0-1.32.52-2.58,1.45-3.51C45.32,89.2,89.19,45.33,133.06,1.46c1.94-1.94,5.1-1.95,7.04,0,42.13,42.39,84.25,89.41,126.38,131.65.93.94,1.45,2.2,1.44,3.52-.28,57.26-.56,114.52-.84,171.78-.01,2.75-2.25,4.96-5,4.94ZM130.62,132.23c.65,2.9,1.2,7.61,1.23,9.49,0,1.2-.13,1.57-.64,2.36-9.99,14.92-57.39,87.27-67.05,101.15-3.71,5.3-7.32,10.23-10.74,14.58-.66.84-1.34,1.72-1.87,2.52-.4.72-.74,1.15-.37,1.62.56.61,3.17.36,6.64.41,11.59,0,31.57,0,38.95,0,3.72.3,4.85-3.6,6.09-6.48,3.97-9.87,8.95-18.53,14.29-27.28,5.29-8.6,14.58-24.76,20.06-33.2.53-.48.57.97.82,4.08.03.44.07.91.11,1.4.47,6.08,1.24,16.08,1.76,22.75.7,8.49.83,13.95,3.12,21.72,4.32,15.56,19.59,23,35.02,21.36,11.22-1,22.23-4.09,31.24-10.33,1.97-1.47,2.05-3.51,1.24-5.61-2-5.28-6.2-16.03-8.37-21.63-1.75-5.28-3.94-2.53-7.39-.4-5.21,3.7-13.65,4.67-16.74-1.61-.18-.37-.3-.77-.37-1.17-2.67-14.83-6.94-73.29-9.86-99.86-1.52-19.28-8.5-35.81-28.42-36.77-14.48-.89-26.64,1.71-40.26,8.31-3.53,1.82-8.54,3.4-5.97,8.48,1.18,2.84,2.43,5.7,3.9,9.18,1.51,3.55,3.11,7.3,4.54,10.66,0,0,0,0,0,0h0c1.34,2.71,4.74,3.65,7.28,2.02,1.5-.96,3.04-2.09,4.84-2.95,7.05-4.05,14.87-4.36,16.85,5l.05.2Z"/>
  </g>
</svg>