<?xml version="1.0" encoding="UTF-8"?>
<svg id="Layer_2" data-name="Layer 2" xmlns="http://www.w3.org/2000/svg" viewBox="0 0 733.28 168.95">
  <defs>
    <style>
      .cls-1 {
        fill: #f2059f;
      }
    </style>
  </defs>
  <g id="Layer_1-2" data-name="Layer 1">
    <g>
      <g>
        <g>
          <path class="cls-1" d="M146.96,1.12h28.57c4.81,0,8.71,3.9,8.71,8.71v33.58c0,6.85,7.52,10.98,13.35,7.37,1.7-1.05,3.39-1.96,5.09-2.73,6.11-2.77,13.33-4.16,21.68-4.16,12.36,0,22.1,3.79,29.22,11.37,7.11,7.58,10.67,19.21,10.67,34.89v67.26c0,4.81-3.9,8.71-8.71,8.71h-28.57c-4.81,0-8.71-3.9-8.71-8.71v-56.87c0-7.49-1.37-12.78-4.1-15.89-2.73-3.11-6.57-4.66-11.52-4.66-5.46,0-9.89,2.1-13.29,6.29-3.4,4.19-5.09,11.72-5.09,22.57v46.62c0,5.89-4.77,10.66-10.66,10.66h-9.51c-14.27,0-25.83-11.56-25.83-25.83,0-8.04,0-16.07,0-24.11,0-35.45,0-70.9,0-106.34,0-.58.06-3.67,8.71-8.71Z"/>
          <path class="cls-1" d="M251.45,106.95c0-18.19,6.14-33.19,18.42-44.98,12.28-11.79,28.86-17.69,49.75-17.69,23.88,0,41.93,6.93,54.13,20.78,9.81,11.16,14.71,24.89,14.71,41.22,0,18.34-6.08,33.37-18.25,45.09-12.17,11.72-28.99,17.58-50.48,17.58-19.17,0-34.67-4.87-46.49-14.6-14.53-12.05-21.79-27.85-21.79-47.39ZM297.27,106.84c0,10.63,2.15,18.49,6.46,23.58,4.3,5.09,9.71,7.64,16.23,7.64s12-2.51,16.23-7.52c4.23-5.01,6.34-13.06,6.34-24.15,0-10.33-2.13-18.02-6.4-23.08-4.27-5.05-9.55-7.58-15.83-7.58-6.66,0-12.17,2.57-16.51,7.69-4.34,5.13-6.51,12.93-6.51,23.42Z"/>
          <path class="cls-1" d="M496.48,166.25h-32.34c-2.85,0-5.17-2.31-5.17-5.17v-.99c0-4.48-5.33-6.85-8.64-3.82-3.52,3.23-7.07,5.77-10.62,7.62-6.48,3.37-14.43,5.05-23.87,5.05-12.58,0-22.44-3.76-29.59-11.29-7.15-7.52-10.73-19.11-10.73-34.76V52.15c0-2.85,2.31-5.17,5.17-5.17h35.6c2.85,0,5.17,2.31,5.17,5.17v60.42c0,7.49,1.38,12.8,4.16,15.95,2.77,3.14,6.66,4.72,11.68,4.72,5.46,0,9.94-2.09,13.42-6.29,3.48-4.19,5.22-11.72,5.22-22.57v-52.22c0-2.85,2.31-5.17,5.17-5.17h35.38c2.85,0,5.17,2.31,5.17,5.17v108.94c0,2.85-2.31,5.17-5.17,5.17Z"/>
          <path class="cls-1" d="M493.06,132.53l35.29-3.32c2.19-.21,4.24,1.01,5.17,2.99,1.72,3.67,3.89,6.41,6.51,8.21,3.37,2.32,7.86,3.48,13.48,3.48,6.14,0,10.89-1.31,14.26-3.93,2.62-1.94,3.93-4.37,3.93-7.29,0-3.29-1.72-5.83-5.17-7.63-2.47-1.27-9.02-2.84-19.65-4.71-15.87-2.77-26.9-5.33-33.07-7.68-6.18-2.35-11.38-6.34-15.61-11.95-4.23-5.61-6.35-12-6.35-19.19,0-7.85,2.28-14.62,6.85-20.31,4.57-5.68,10.86-9.93,18.87-12.73,8.01-2.8,18.75-4.21,32.23-4.21,14.22,0,24.72,1.09,31.5,3.26,6.77,2.17,12.43,5.54,16.96,10.11,3.13,3.15,5.89,7.07,8.28,11.76,1.65,3.23-.5,7.11-4.11,7.47l-32.28,3.18c-2.13.21-4.23-.86-5.17-2.77-1.1-2.25-2.57-4-4.4-5.26-3.59-2.4-7.94-3.59-13.03-3.59s-8.93.92-11.29,2.75-3.54,4.05-3.54,6.67c0,2.92,1.5,5.12,4.49,6.62,2.99,1.5,9.51,2.84,19.54,4.04,15.2,1.72,26.5,4.11,33.92,7.18s13.08,7.44,17.01,13.13c3.93,5.69,5.9,11.93,5.9,18.74s-2.08,13.58-6.23,20.08c-4.16,6.51-10.71,11.69-19.65,15.54-8.95,3.85-21.13,5.78-36.56,5.78-21.79,0-37.3-3.11-46.55-9.32-7.45-5.01-12.75-11.72-15.9-20.13-1.19-3.19.97-6.64,4.36-6.96Z"/>
          <path class="cls-1" d="M728.12,117.96h-80.32c-3.37,0-5.84,3.19-5.01,6.45,1.07,4.18,2.67,7.5,4.81,9.94,4.42,5.17,10.18,7.75,17.29,7.75,4.49,0,8.76-1.12,12.8-3.37,1.98-1.14,4.07-2.97,6.29-5.5,1.1-1.25,2.71-1.93,4.37-1.78l33.9,3.13c3.95.36,6.07,4.88,3.76,8.1-5.88,8.23-12.62,14.38-20.24,18.45-9.73,5.2-23.7,7.8-41.89,7.8-15.8,0-28.23-2.23-37.29-6.68-9.06-4.45-16.56-11.53-22.52-21.23-5.95-9.69-8.93-21.09-8.93-34.2,0-18.64,5.97-33.73,17.91-45.26,11.94-11.53,28.43-17.29,49.47-17.29,17.07,0,30.55,2.58,40.43,7.75s17.41,12.65,22.57,22.46c5.17,9.81,7.75,22.57,7.75,38.3h0c0,2.85-2.31,5.17-5.17,5.17ZM680.76,96.06c3.33,0,5.75-3.09,5.03-6.34-1.23-5.59-3.28-9.81-6.14-12.64-3.86-3.82-8.93-5.73-15.22-5.73-7.26,0-13.07,2.88-17.41,8.65-1.87,2.43-3.29,5.67-4.24,9.71-.76,3.24,1.71,6.35,5.03,6.35h32.93Z"/>
        </g>
        <path class="cls-1" d="M75.05,38.76c-.57-5.51-2.85-8.17-7.22-8.17s-11.4,3.61-17.67,9.12l-11.78-27.93C54.15,3.04,64.6,0,79.61,0c18.43,0,27.36,10.07,29.45,33.06l8.74,93.67c.57,4.75,2.85,7.03,7.41,7.03,4.17,0,7.34-1.89,9.17-3.07,1.26-.82,3.08-2.18,4.89-4.34,3.67,9.56,7.35,19.13,11.02,28.69-7.41,4.37-11.02,6.27-15.77,7.79-6.08,2.09-14.25,3.42-20.52,3.42-7.98,0-15.77-3.04-20.71-7.98-5.51-5.32-8.55-13.3-9.31-25.08l-2.66-34.77-22.23,37.43c-5.13,8.55-8.36,15.39-12.35,26.03H0c5.51-6.65,11.21-14.63,17.48-23.94l58.71-89.68-1.14-9.5Z"/>
      </g>
      <polygon class="cls-1" points="114 166.25 172.55 166.12 145.29 153.01 114 166.25"/>
      <path class="cls-1" d="M121.8,133.17c3.64,1.08,6.23.42,7.41,0,5.75-2.02,9.61-9.21,9.03-17.83.02-4.58.04-9.17.06-13.75h3.61v32.71c-6.7.11-13.41.22-20.11.34v-1.46Z"/>
    </g>
  </g>
</svg>