<?xml version="1.0" encoding="UTF-8"?>
<svg id="Layer_2" data-name="Layer 2" xmlns="http://www.w3.org/2000/svg" viewBox="0 0 1398.68 362.14">
  <defs>
    <style>
      .cls-1 {
        opacity: .9;
      }

      .cls-2 {
        fill: #f2f2f2;
      }
    </style>
  </defs>
  <g id="Layer_1-2" data-name="Layer 1">
    <g class="cls-1">
      <path class="cls-2" d="M897.68,162.29c-1.1-2.25-2.57-4-4.4-5.26-3.59-2.4-7.94-3.59-13.03-3.59s-8.93.92-11.29,2.75-3.54,4.05-3.54,6.67c0,2.92,1.5,5.12,4.49,6.62,2.99,1.5,9.51,2.84,19.54,4.04,15.2,1.72,26.5,4.11,33.92,7.18,1.75.72,3.4,1.53,4.96,2.4.85-7.74,2.88-14.78,6.07-21.13l-31.55,3.11c-2.13.21-4.23-.86-5.17-2.77Z"/>
      <path class="cls-2" d="M652.99,160.74c-6.66,0-12.17,2.57-16.51,7.69-4.34,5.13-6.51,12.93-6.51,23.42s2.15,18.49,6.46,23.58c4.3,5.09,9.71,7.64,16.23,7.64s12-2.51,16.23-7.52c4.23-5.01,6.34-13.06,6.34-24.15,0-10.33-2.13-18.02-6.4-23.08-4.27-5.05-9.55-7.58-15.83-7.58Z"/>
      <path class="cls-2" d="M899.23,210.07c-2.47-1.27-9.02-2.84-19.65-4.71-15.87-2.77-26.9-5.33-33.07-7.68-4.59-1.75-8.65-4.41-12.16-7.96v27.01l26.7-2.51c2.19-.21,4.24,1.01,5.17,2.99,1.72,3.67,3.89,6.41,6.51,8.21,3.37,2.32,7.86,3.48,13.48,3.48,6.14,0,10.89-1.31,14.26-3.93,2.62-1.94,3.93-4.37,3.93-7.29,0-3.29-1.72-5.83-5.17-7.63Z"/>
      <path class="cls-2" d="M0,0v362.14h1398.68V0H0ZM1060.82,202.97h-80.32c-3.37,0-5.84,3.19-5.01,6.45,1.07,4.18,2.67,7.5,4.81,9.94,4.42,5.17,10.18,7.75,17.29,7.75,4.49,0,8.76-1.12,12.8-3.37,1.98-1.14,4.07-2.97,6.29-5.5,1.1-1.25,2.71-1.93,4.37-1.78l33.9,3.13c3.95.36,6.07,4.88,3.76,8.1-5.88,8.23-12.62,14.38-20.24,18.45-9.73,5.2-23.7,7.8-41.89,7.8-15.8,0-28.23-2.23-37.29-6.68-7.2-3.54-13.42-8.75-18.66-15.6-.2.32-.37.65-.58.97-4.16,6.51-10.71,11.69-19.65,15.54-8.95,3.85-21.13,5.78-36.56,5.78-21.79,0-37.3-3.11-46.55-9.32-1.03-.69-2.01-1.42-2.95-2.18v3.64c0,2.85-2.31,5.17-5.17,5.17h-32.34c-2.85,0-5.17-2.31-5.17-5.17v-.99c0-4.48-5.33-6.85-8.64-3.82-3.52,3.23-7.07,5.77-10.62,7.62-6.48,3.37-14.43,5.05-23.87,5.05-12.58,0-22.44-3.76-29.59-11.29-3.78-3.97-6.54-9.09-8.32-15.32-2.22,3.2-4.79,6.22-7.71,9.03-12.17,11.72-28.99,17.58-50.48,17.58-19.17,0-34.67-4.87-46.49-14.6-3.4-2.82-6.39-5.86-8.99-9.09v12.15c0,4.81-3.9,8.71-8.71,8.71h-28.57c-4.81,0-8.71-3.9-8.71-8.71v-56.87c0-7.49-1.37-12.78-4.1-15.89-2.73-3.11-6.57-4.66-11.52-4.66-5.46,0-9.89,2.1-13.29,6.29-3.4,4.19-5.09,11.72-5.09,22.57v46.62c0,5.89-4.77,10.66-10.66,10.66h-1.04l-58.55.13c-7.98,0-15.77-3.04-20.71-7.98-5.51-5.32-8.55-13.3-9.31-25.08l-2.66-34.77-22.23,37.43c-5.13,8.55-8.36,15.39-12.35,26.03h-46.74c5.51-6.65,11.21-14.63,17.48-23.94l58.71-89.68-1.14-9.5c-.57-5.51-2.85-8.17-7.22-8.17s-11.4,3.61-17.67,9.12l-11.78-27.93c15.77-8.74,26.22-11.78,41.23-11.78,18.43,0,27.36,10.07,29.45,33.06l8.74,93.67c.41,3.37,1.68,5.5,4.01,6.45,1.33.39,2.52.55,3.55.58,1.42-.02,2.73-.25,3.9-.6,4.96-1.78,8.51-7.41,8.98-14.49v-2.48c0-35.45,0-70.9,0-106.34,0-.58.06-3.67,8.71-8.71h28.57c4.81,0,8.71,3.9,8.71,8.71v33.58c0,6.85,7.52,10.98,13.35,7.37,1.7-1.05,3.39-1.96,5.09-2.73,6.11-2.77,13.33-4.16,21.68-4.16,12.36,0,22.1,3.79,29.22,11.37,3.85,4.11,6.66,9.41,8.42,15.9,2.26-3.25,4.88-6.31,7.87-9.19,12.28-11.79,28.86-17.69,49.75-17.69,23.88,0,41.93,6.93,54.13,20.78.61.69,1.2,1.4,1.77,2.11v-15.03c0-2.85,2.31-5.17,5.17-5.17h35.6c2.85,0,5.17,2.31,5.17,5.17v60.42c0,7.49,1.38,12.8,4.16,15.95,2.77,3.14,6.66,4.72,11.68,4.72,5.46,0,9.94-2.09,13.42-6.29,3.48-4.19,5.22-11.72,5.22-22.57v-52.22c0-2.85,2.31-5.17,5.17-5.17h35.38c2.85,0,5.17,2.31,5.17,5.17v5.88c4.21-4.1,9.5-7.29,15.92-9.53,8.01-2.8,18.75-4.21,32.23-4.21,14.22,0,24.72,1.09,31.5,3.26,6.77,2.17,12.43,5.54,16.96,10.11,3.08,3.11,5.8,6.96,8.17,11.55,1.96-2.69,4.16-5.24,6.63-7.62,11.94-11.53,28.43-17.29,49.47-17.29,17.07,0,30.55,2.58,40.43,7.75s17.41,12.65,22.57,22.46c5.17,9.81,7.75,22.57,7.75,38.3,0,2.85-2.31,5.17-5.17,5.17Z"/>
      <path class="cls-2" d="M1012.36,162.09c-3.86-3.82-8.93-5.73-15.22-5.73-7.26,0-13.07,2.88-17.41,8.65-1.87,2.43-3.29,5.67-4.24,9.71-.76,3.24,1.71,6.35,5.03,6.35h32.93c3.33,0,5.75-3.09,5.03-6.34-1.23-5.59-3.28-9.81-6.14-12.64Z"/>
    </g>
  </g>
</svg>